<?xml version="1.0" encoding="utf-8"?>
<!-- Generator: Adobe Illustrator 16.2.1, SVG Export Plug-In . SVG Version: 6.00 Build 0)  -->
<!DOCTYPE svg PUBLIC "-//W3C//DTD SVG 1.1//EN" "http://www.w3.org/Graphics/SVG/1.1/DTD/svg11.dtd">
<svg version="1.1" id="Layer_1" xmlns="http://www.w3.org/2000/svg" xmlns:xlink="http://www.w3.org/1999/xlink" x="0px" y="0px"
	 width="100px" height="16.408px" viewBox="0 0 100 16.408" enable-background="new 0 0 100 16.408" xml:space="preserve">
<path fill="#FBB03B" d="M99.951,8.566c-0.207-0.89-1.02-1.513-1.926-1.488c-0.014,0-0.698,0.019-1.887,0.019
	c-5.488,0-24.152-0.399-33.902-5.526C60.256,0.528,58.363,0,56.613,0C53.863,0,51.471,1.356,50,3.681C48.53,1.356,46.137,0,43.386,0
	c-1.751,0-3.643,0.528-5.622,1.57C28.013,6.697,9.35,7.097,3.862,7.097c-1.188,0-1.873-0.018-1.888-0.019
	C1.068,7.052,0.256,7.677,0.05,8.566c-0.206,0.891,0.243,1.803,1.074,2.183c6.933,3.174,20.95,5.658,31.911,5.658l0,0
	c8.523,0,14.222-1.402,16.966-4.161c2.744,2.759,8.44,4.161,16.964,4.161c10.962,0,24.979-2.484,31.912-5.658
	C99.708,10.37,100.156,9.458,99.951,8.566z"/>
</svg>
