<?xml version="1.0" encoding="utf-8"?>
<!-- Generator: Adobe Illustrator 16.2.1, SVG Export Plug-In . SVG Version: 6.00 Build 0)  -->
<!DOCTYPE svg PUBLIC "-//W3C//DTD SVG 1.1//EN" "http://www.w3.org/Graphics/SVG/1.1/DTD/svg11.dtd">
<svg version="1.1" id="Layer_1" xmlns="http://www.w3.org/2000/svg" xmlns:xlink="http://www.w3.org/1999/xlink" x="0px" y="0px"
	 width="100px" height="36.688px" viewBox="0 0 100 36.688" enable-background="new 0 0 100 36.688" xml:space="preserve">
<path fill="#FBB03B" d="M99.885,25.508c-0.611-3.476-2.05-5.779-4.271-6.847c-3.127-1.503-6.352,0.169-6.709,0.364
	c-0.771,0.423-1.156,1.312-0.938,2.163c0.218,0.852,0.983,1.446,1.862,1.446c0.943,0,1.854,0.366,2.211,0.891
	c0.255,0.373,0.246,0.917-0.025,1.615c-0.229,0.587-1.133,1.183-2.634,1.189c-1.429-0.006-9.058-0.748-15.351-16.385
	c-1.889-4.692-4.914-7.771-8.992-9.148C59.678-1.01,53.762,0.612,50,2.134c-3.761-1.521-9.676-3.144-15.037-1.335
	c-4.078,1.376-7.104,4.455-8.993,9.149c-6.263,15.562-13.818,16.384-15.329,16.384c-0.008,0-0.015,0-0.021,0
	c-1.5-0.008-2.404-0.604-2.632-1.189c-0.272-0.698-0.281-1.242-0.026-1.615c0.358-0.523,1.267-0.891,2.21-0.891
	c0.878,0,1.646-0.595,1.863-1.446c0.217-0.851-0.169-1.74-0.939-2.163c-0.358-0.194-3.581-1.87-6.709-0.364
	c-2.223,1.066-3.66,3.371-4.271,6.847c-0.778,4.426,2.425,8.301,8.359,10.111c10.197,3.106,28.725-0.024,36.109-16.638
	c2.367-5.325,3.37-5.556,5.408-5.556c0.002,0,0.005,0,0.008,0c2.044,0.001,3.047,0.226,5.417,5.556
	c5.755,12.944,18.272,17.706,28.347,17.705c2.854,0,5.512-0.382,7.764-1.067C97.46,33.809,100.663,29.934,99.885,25.508z"/>
</svg>
