<?xml version="1.0" encoding="utf-8"?>
<!-- Generator: Adobe Illustrator 16.2.1, SVG Export Plug-In . SVG Version: 6.00 Build 0)  -->
<!DOCTYPE svg PUBLIC "-//W3C//DTD SVG 1.1//EN" "http://www.w3.org/Graphics/SVG/1.1/DTD/svg11.dtd">
<svg version="1.1" id="Layer_1" xmlns="http://www.w3.org/2000/svg" xmlns:xlink="http://www.w3.org/1999/xlink" x="0px" y="0px"
	 width="100px" height="31.008px" viewBox="0 0 100 31.008" enable-background="new 0 0 100 31.008" xml:space="preserve">
<path fill="#FBB03B" d="M94.504,13.334C86.629,4.58,71.43,0,60.482,0c-3.385,0-7.844,0.474-9.881,2.733
	C50.386,2.972,50.196,3.211,50,3.45c-0.196-0.238-0.386-0.477-0.602-0.716C47.362,0.474,42.901,0,39.518,0
	C28.572,0,13.371,4.58,5.497,13.334C1.302,17.997-0.506,23.366,0.122,29.29c0.101,0.951,0.888,1.683,1.844,1.717
	c0.023,0,0.046,0,0.069,0c0.927,0,1.728-0.666,1.892-1.586c0.013-0.07,1.172-6.279,5.14-8.078c-0.08,0.703-0.21,1.541-0.37,2.326
	c-0.142,0.699,0.115,1.422,0.669,1.873c0.553,0.451,1.312,0.56,1.969,0.279c0.353-0.15,6.312-2.695,11.246-5.398
	c-0.321,0.68-0.651,1.363-0.97,2.015c-0.375,0.767-0.202,1.687,0.426,2.263s1.561,0.674,2.29,0.233
	c4.431-2.658,9.238-5.472,12.372-7.229c-0.491,0.985-1.06,2.049-1.604,2.998c-0.406,0.707-0.321,1.596,0.212,2.213
	c0.535,0.619,1.4,0.832,2.158,0.533c4.334-1.701,9.02-3.648,10.896-5.193l0.126-0.096c0.562-0.418,1.058-0.854,1.514-1.303
	c0.456,0.447,0.953,0.885,1.515,1.303l0.119,0.092c1.891,1.553,6.571,3.498,10.902,5.197c0.229,0.09,0.467,0.133,0.701,0.133
	c0.008,0,0.014,0.002,0.021,0c1.062,0,1.925-0.861,1.925-1.922c0-0.439-0.146-0.843-0.395-1.166
	c-0.506-0.893-1.027-1.869-1.482-2.781c3.148,1.763,7.946,4.568,12.367,7.223c0.73,0.438,1.662,0.343,2.29-0.232
	c0.627-0.576,0.802-1.498,0.427-2.263c-0.32-0.651-0.648-1.336-0.971-2.017c4.936,2.705,10.895,5.25,11.247,5.4
	c0.657,0.279,1.417,0.172,1.97-0.281c0.555-0.451,0.812-1.174,0.668-1.873c-0.158-0.771-0.287-1.613-0.369-2.324
	c3.967,1.8,5.127,8.007,5.14,8.078c0.161,0.922,0.964,1.588,1.893,1.588c0.021,0,0.044,0,0.065-0.002
	c0.959-0.031,1.746-0.764,1.847-1.719C100.508,23.366,98.699,17.997,94.504,13.334z"/>
</svg>
