<?xml version="1.0" encoding="utf-8"?>
<!-- Generator: Adobe Illustrator 16.2.1, SVG Export Plug-In . SVG Version: 6.00 Build 0)  -->
<!DOCTYPE svg PUBLIC "-//W3C//DTD SVG 1.1//EN" "http://www.w3.org/Graphics/SVG/1.1/DTD/svg11.dtd">
<svg version="1.1" id="Layer_1" xmlns="http://www.w3.org/2000/svg" xmlns:xlink="http://www.w3.org/1999/xlink" x="0px" y="0px"
	 width="220px" height="33.099px" viewBox="0 0 220 33.099" enable-background="new 0 0 220 33.099" xml:space="preserve">
<g>
	<path fill="#333333" d="M0.522,33.099C0.218,33.099,0,32.881,0,32.577V0.543c0-0.304,0.218-0.521,0.522-0.521h10.257
		c0.261,0,0.696,0.13,0.869,0.348l3.607,3.607c0.218,0.217,0.392,0.608,0.392,0.913v23.341c0,0.26-0.174,0.695-0.392,0.869
		l-3.607,3.608c-0.173,0.218-0.608,0.392-0.869,0.392H0.522z M8.867,28.491c0.261,0,0.696-0.174,0.87-0.391l0.912-0.914
		c0.217-0.173,0.392-0.608,0.392-0.869V6.802c0-0.304-0.174-0.696-0.392-0.913L9.736,4.977c-0.174-0.174-0.608-0.348-0.87-0.348
		H5.128c-0.261,0-0.521,0.217-0.521,0.521V27.97c0,0.261,0.26,0.521,0.521,0.521H8.867z"/>
	<path fill="#333333" d="M35.644,15.756c0,0.304-0.175,0.695-0.392,0.913l-1.347,1.347c-0.218,0.218-0.348,0.608-0.261,0.87
		l2.391,13.691c0.044,0.304-0.174,0.522-0.435,0.522h-3.651c-0.304,0-0.564-0.218-0.608-0.522l-1.999-11.432
		c-0.044-0.261-0.306-0.478-0.609-0.478h-3.606c-0.262,0-0.522,0.217-0.479,0.478v11.432c0,0.26-0.261,0.522-0.521,0.522h-3.564
		c-0.305,0-0.522-0.218-0.565-0.522V0.543c0-0.304,0.217-0.521,0.521-0.521h10.215c0.304,0,0.695,0.174,0.912,0.391l3.608,3.607
		c0.217,0.217,0.392,0.608,0.392,0.87V15.756z M30.644,14.756c0.218-0.218,0.392-0.609,0.392-0.913V6.802
		c0-0.261-0.174-0.696-0.392-0.869L29.732,5.02c-0.217-0.217-0.608-0.391-0.87-0.391h-3.737c-0.262,0-0.522,0.261-0.522,0.521
		v10.345c0,0.304,0.261,0.522,0.522,0.522h3.737c0.261,0,0.653-0.131,0.87-0.348L30.644,14.756z"/>
	<path fill="#333333" d="M53.684,4.151c0,0.304-0.261,0.521-0.522,0.521h-7.649c-0.305,0-0.522,0.217-0.522,0.521v6.172
		c0,0.304,0.217,0.521,0.522,0.521h5.78c0.262,0,0.522,0.261,0.522,0.522v3.564c0,0.304-0.261,0.521-0.522,0.521h-5.78
		c-0.305,0-0.522,0.261-0.522,0.522V27.97c0,0.304,0.217,0.521,0.522,0.521h7.649c0.261,0,0.522,0.217,0.522,0.521v3.565
		c0,0.304-0.261,0.522-0.522,0.522H40.904c-0.304,0-0.521-0.218-0.521-0.522V0.587c0-0.304,0.217-0.521,0.521-0.521h12.257
		c0.261,0,0.522,0.217,0.522,0.521V4.151z"/>
	<path fill="#333333" d="M76.721,19.973c0.044,0.26,0.13,0.26,0.175,0L80.372,0.5c0.044-0.261,0.304-0.478,0.609-0.478h3.608
		c0.304,0,0.478,0.217,0.435,0.478l-5.694,32.077c-0.043,0.304-0.304,0.522-0.608,0.522h-3.999c-0.304,0-0.565-0.218-0.608-0.522
		l-2.912-18.039c-0.044-0.304-0.13-0.304-0.173,0l-2.87,18.039c-0.043,0.304-0.347,0.522-0.608,0.522h-4
		c-0.304,0-0.564-0.218-0.608-0.522L57.162,0.5c-0.043-0.261,0.131-0.478,0.435-0.478h3.651c0.261,0,0.565,0.217,0.609,0.478
		l3.478,19.473c0.043,0.26,0.13,0.26,0.174,0L68.637,0.5c0.043-0.261,0.087-0.478,0.13-0.478c0.043,0,0.304,0,0.608,0h3.478
		c0.261,0,0.522,0,0.565,0s0.13,0.217,0.174,0.478L76.721,19.973z"/>
</g>
<g>
	<path fill="#333333" d="M132.931,14.3c0.086,0.304,0.217,0.304,0.304,0l3.912-13.604c0.086-0.304,0.391-0.521,0.652-0.521h3.694
		c0.261,0,0.522,0.261,0.522,0.521v31.903c0,0.304-0.261,0.522-0.522,0.522h-3.563c-0.306,0-0.522-0.218-0.522-0.522V16.951
		c0-0.26-0.087-0.304-0.131,0l-2.695,9.258c-0.087,0.26-0.348,0.478-0.652,0.478h-1.738c-0.304,0-0.564-0.218-0.652-0.478
		l-2.563-8.998c-0.088-0.304-0.131-0.261-0.131,0v15.387c0,0.304-0.218,0.522-0.522,0.522h-3.564c-0.261,0-0.521-0.218-0.521-0.522
		V0.695c0-0.261,0.261-0.521,0.521-0.521h3.651c0.305,0,0.609,0.218,0.695,0.521L132.931,14.3z"/>
	<path fill="#333333" d="M147.32,4.738c-0.307,0-0.521-0.261-0.521-0.522V0.652c0-0.305,0.215-0.521,0.521-0.521h13.082
		c0.261,0,0.521,0.217,0.521,0.521v3.564c0,0.261-0.261,0.522-0.521,0.522h-3.783c-0.259,0-0.519,0.217-0.519,0.521v22.732
		c0,0.304,0.26,0.521,0.519,0.521h3.783c0.261,0,0.521,0.261,0.521,0.521v3.565c0,0.304-0.261,0.522-0.521,0.522H147.32
		c-0.307,0-0.521-0.218-0.521-0.522v-3.565c0-0.26,0.215-0.521,0.521-0.521h3.649c0.306,0,0.521-0.217,0.521-0.521V5.259
		c0-0.304-0.216-0.521-0.521-0.521H147.32z"/>
	<path fill="#333333" d="M175.271,17.168c0.086,0.261,0.173,0.261,0.173-0.043V0.521c0-0.261,0.26-0.521,0.521-0.521h3.563
		c0.306,0,0.521,0.261,0.521,0.521v32.077c0,0.304-0.216,0.522-0.521,0.522h-2.868c-0.304,0-0.609-0.218-0.695-0.479l-6.694-18.646
		c-0.13-0.261-0.172-0.217-0.172,0.043v18.56c0,0.304-0.262,0.522-0.522,0.522h-3.563c-0.305,0-0.521-0.218-0.521-0.522V0.564
		c0-0.304,0.217-0.521,0.521-0.521h3.563c0.303,0,0.608,0.217,0.694,0.478L175.271,17.168z"/>
	<path fill="#333333" d="M195.267,17.168c0.086,0.261,0.172,0.261,0.172-0.043V0.521c0-0.261,0.261-0.521,0.522-0.521h3.563
		c0.305,0,0.521,0.261,0.521,0.521v32.077c0,0.304-0.217,0.522-0.521,0.522h-2.869c-0.304,0-0.608-0.218-0.694-0.479l-6.694-18.646
		c-0.131-0.261-0.173-0.217-0.173,0.043v18.56c0,0.304-0.261,0.522-0.522,0.522h-3.563c-0.305,0-0.521-0.218-0.521-0.522V0.564
		c0-0.304,0.217-0.521,0.521-0.521h3.563c0.304,0,0.608,0.217,0.695,0.478L195.267,17.168z"/>
	<path fill="#333333" d="M208.395,0.435c0.217-0.217,0.608-0.391,0.867-0.391h5.869c0.305,0,0.695,0.174,0.913,0.391l3.606,3.607
		c0.175,0.217,0.35,0.608,0.35,0.87v4.52c0,0.305-0.221,0.522-0.522,0.522h-3.564c-0.26,0-0.521-0.217-0.521-0.522V6.824
		c0-0.261-0.131-0.696-0.348-0.87l-0.913-0.956c-0.217-0.174-0.609-0.348-0.911-0.348h-2.044c-0.262,0-0.653,0.174-0.87,0.348
		l-0.913,0.956c-0.217,0.173-0.39,0.608-0.39,0.87v4.607c0,0.261,0.173,0.695,0.348,0.87l0.955,0.913
		c0.175,0.217,0.565,0.391,0.87,0.391h3.955c0.261,0,0.695,0.174,0.869,0.348l3.65,3.608c0.175,0.217,0.35,0.609,0.35,0.913v9.78
		c0,0.26-0.175,0.695-0.35,0.869l-3.606,3.651c-0.218,0.175-0.608,0.349-0.913,0.349h-5.869c-0.259,0-0.65-0.174-0.867-0.349
		l-3.607-3.651c-0.22-0.174-0.392-0.608-0.392-0.869v-5.564c0-0.305,0.26-0.522,0.522-0.522h3.562c0.304,0,0.522,0.217,0.522,0.522
		v3.651c0,0.305,0.173,0.696,0.39,0.913l0.913,0.913c0.217,0.174,0.608,0.348,0.87,0.348h2.044c0.302,0,0.694-0.174,0.911-0.348
		l0.913-0.913c0.217-0.217,0.348-0.608,0.348-0.913v-5.955c0-0.304-0.131-0.695-0.348-0.912l-0.958-0.913
		c-0.172-0.218-0.564-0.348-0.866-0.348h-3.958c-0.259,0-0.695-0.174-0.867-0.391l-3.652-3.607
		c-0.175-0.217-0.347-0.609-0.347-0.913V4.912c0-0.261,0.172-0.652,0.392-0.87L208.395,0.435z"/>
</g>
<path fill-rule="evenodd" clip-rule="evenodd" fill="#FBB03B" d="M113.21,3.598c-1.913,2.877-3.825,5.755-6.068,9.125
	c2.494,0.178,4.563,0.326,7.434,0.53c-6.663,6.132-12.787,11.768-18.91,17.402c-0.226-0.156-0.452-0.311-0.678-0.467
	c2.458-4.101,4.916-8.203,7.637-12.743c-2.202-0.15-4.03-0.275-6.471-0.443c3.234-4.606,5.823-9.153,9.315-12.849
	c1.428-1.513,4.807-1.182,7.299-1.691C112.917,2.841,113.063,3.22,113.21,3.598z"/>
</svg>
